<svg xmlns="http://www.w3.org/2000/svg" width="32" height="32" viewBox="0 0 32 32"><g transform="translate(146.125 -1396.362)"><path style="isolation:auto;mix-blend-mode:normal" fill="#fff" d="m -114.625,1411.0814 0,16.7808 -31,0 0,-31 30.99998,0 2e-5,8.961 z" color="#000" overflow="visible"/><path fill="#00a5ff" d="m -145.625,1396.8623 30.5,0 0,4 -30.5,0 z"/><path fill="#0079fd" d="m -145.625,1396.8623 0,1.5 29.75,0 0,2.5 1.5,0 0,-4 z"/><circle style="isolation:auto;mix-blend-mode:normal" cx="-143.625" cy="1398.862" r=".5" fill="#fe2b70" color="#000" overflow="visible"/><circle cx="-141.625" cy="1398.862" r=".5" fill="#f9d259" color="#000" overflow="visible" style="isolation:auto;mix-blend-mode:normal"/><circle style="isolation:auto;mix-blend-mode:normal" cx="-139.625" cy="1398.862" r=".5" fill="#f9d259" color="#000" overflow="visible"/><path style="isolation:auto;mix-blend-mode:normal" fill="none" stroke="#000" stroke-dashoffset=".4" stroke-linecap="round" stroke-linejoin="round" stroke-miterlimit="0" d="m -114.625,1411.0814 0,16.7808 -31,0 0,-31 30.99998,0 2e-5,8.961 m 0,2.3359 0,0.2932 0,0.2224" color="#000" overflow="visible"/><path fill="none" stroke="#000" d="m -145.625,1400.8623 30.99999,0"/><path fill="#f8e71b" fill-rule="evenodd" d="m -133.11472,1414.362 0,4 3,3 3,-4 0,-3"/><path fill="#fff" fill-rule="evenodd" d="m -133.11472,1414.362 0,4 3,3 0.64258,-0.8574 c 0,0 -2.14258,-2.1426 -2.14258,-2.7426 0,-0.6 0,-3.4 0,-3.4 z"/><path fill="#fd5b6a" fill-rule="evenodd" d="m -127.12815,1417.6136 5.25796,2.9379 c 1.07268,0.5995 1.73467,1.7149 1.73467,2.923 l 0,4.3877 -19.97896,0 0,-4.2932 c 0,-1.2665 0.69399,-2.4358 1.8185,-3.0642 l 5.17414,-2.8912 2.91891,3.6594 z"/><path fill="none" stroke="#fe2b70" d="m -129.11472,1428.2821 0,-7.9202"/><path fill="none" stroke="#000" d="M-136.58997 1427.64l0-3.1886M-123.65777 1427.64l0-3.1886"/><ellipse cx="-127.773" cy="1423.739" rx=".601" ry=".587"/><ellipse cx="-127.773" cy="1426.088" rx=".588" ry=".575"/><path fill="#fff" fill-rule="evenodd" d="m -133.12253,1417.614 -5.17383,2.8906 c -1.12451,0.6284 -1.81836,1.7979 -1.81836,3.0644 l 0,4.293 1.5,0 0,-2.793 c 0,-1.2665 0.69385,-2.436 1.81836,-3.0644 l 4.96484,-2.7735 z"/><path fill="none" stroke="#000" d="M-130.11545 1428.2943l0-6.7751M-130.125 1428.2822l0-6.7613"/><path fill="#fe2b70" fill-rule="evenodd" d="m -127.12839,1417.614 -1.33008,1.582 5.10937,2.8555 c 1.07268,0.5995 1.73438,1.7137 1.73438,2.9218 l 0,2.8887 1.47852,0 0,-4.3867 c 0,-1.2081 -0.6617,-2.3243 -1.73438,-2.9238 z"/><path fill="#4bbfeb" fill-rule="evenodd" stroke="#000" d="m -130.125,1421.5209 1.14524,-1.0416 2.26887,1.0518 c 0.39478,0.1749 0.8328,-0.1411 0.77836,-0.5617 0,0 -1.06116,-3.2387 -0.98312,-3.399 -0.50438,0.7753 -0.83556,1.8796 -2.04203,2.8847"/><path fill="#4bbfeb" fill-rule="evenodd" stroke="#000" d="m -130.11545,1421.5192 -1.09565,-1.0438 -2.17063,1.054 c -0.37768,0.1753 -0.79674,-0.1414 -0.74466,-0.5628 l 0.94054,-3.4059 c 0.3384,1.0429 1.13806,2.0915 1.95362,2.9363"/><path fill="none" stroke="#000" d="m -127.12815,1414.8662 0,2.7474 5.25796,2.9379 c 1.07268,0.5995 1.73467,1.7149 1.73467,2.923 l 0,4.3877 -19.97896,0 0,-4.2932 c 0,-1.2665 0.69399,-2.4358 1.8185,-3.0642 l 5.17414,-2.8912 0,-2.7474"/><path fill="#f8e71b" d="m -131.95309,1405.4021 c -1.26621,0 -2.28556,0.9805 -2.28556,2.1983 l 0,1.9541 c 0,0.012 0.002,0.017 0.002,0.025 -4e-5,0.012 -0.002,0.016 -0.002,0.025 l 0,2.6372 c 0,2.1923 1.83563,3.958 4.11479,3.958 2.27915,0 4.11478,-1.7657 4.11478,-3.958 l 0,-2.6372 c 0,-0.012 -0.002,-0.016 -0.002,-0.025 9e-5,-0.012 0.002,-0.016 0.002,-0.025 l 0,-2.8626 c -0.18658,-1.3613 -0.87649,-2.3324 -2.29012,-2.3258 -0.0437,0.6365 -0.7475,0.9964 -1.37477,1.036 z"/><path fill="#fff" d="m -128.29831,1404.3659 c -0.0437,0.6365 -0.74773,0.9975 -1.375,1.0371 l 1.62304,0 c 0.44129,-0.028 0.90936,-0.223 1.16993,-0.5527 -0.3562,-0.305 -0.81753,-0.4872 -1.41797,-0.4844 z m -3.6543,1.0371 c -1.26621,0 -2.28516,0.9795 -2.28516,2.1973 l 0,1.9551 c 0,0.012 0.002,0.015 0.002,0.023 -4e-5,0.012 -0.002,0.016 -0.002,0.025 l 0,2.6367 c 0,2.1923 1.83412,3.959 4.11328,3.959 0.27821,0 0.55005,-0.028 0.8125,-0.078 -1.88768,-0.361 -3.30273,-1.9562 -3.30273,-3.8809 l 0,-2.6367 c 0,-0.01 0.002,-0.013 0.002,-0.025 0,-0.01 -0.002,-0.011 -0.002,-0.023 l 0,-1.9551 c 0,-1.2178 1.01895,-2.1972 2.28516,-2.1972 l -1.62305,0 z"/><path fill="#01d1ff" fill-rule="evenodd" d="m -127.97061,1404.8591 c -0.12606,0.2022 -0.33511,0.5415 -0.51911,0.665 -0.35055,0.2355 -0.75539,0.352 -1.15234,0.377 l -0.0156,0 -2.29492,0 c -1.00809,0 -1.78516,0.7604 -1.78516,1.6992 l 0,1.9531 c 0,-0.044 0.002,-0.066 0.002,0.025 0,0.066 -0.002,0.087 -0.002,0.023 l 0,0.4824 1.61133,-0.8964 5.61719,1.0293 0,-0.6153 c 0,0.044 -0.002,0.058 -0.002,-0.025 10e-4,-0.065 0.002,-0.083 0.002,-0.022 l 0,-2.8047 c -0.0852,-0.6083 -0.278,-1.0902 -0.55664,-1.3984 -0.24226,-0.2681 -0.446,-0.4541 -0.90472,-0.4931 z"/><path fill="#01d1ff" fill-rule="evenodd" d="m -127.97019,1404.8601 c -0.12606,0.2022 -0.33553,0.5405 -0.51953,0.664 -0.35055,0.2355 -0.75539,0.352 -1.15234,0.377 l -0.0156,0 -2.29492,0 c -1.00809,0 -1.78516,0.7604 -1.78516,1.6992 l 0,1.9531 c 0,-0.044 0.002,-0.066 0.002,0.025 0,0.066 -0.002,0.087 -0.002,0.023 l 0,0.1543 c 0.14095,-0.098 0.28741,-0.201 0.4375,-0.332 0.19696,-0.1719 0.38444,-0.3591 0.51953,-0.5156 0.13511,-0.156 0.21151,-0.325 0.19141,-0.252 a 0.50005006,0.50005006 0 0 1 0.5,-0.3691 l 0,0 a 0.50005006,0.50005006 0 0 1 0.41211,0.2461 c 0.28885,0.4892 0.62456,0.6937 1.06445,0.8125 0.4399,0.119 0.98815,0.1177 1.56641,0.094 0.57826,-0.024 1.18246,-0.07 1.77539,0.037 0.25961,0.047 0.51839,0.1419 0.76172,0.2753 l 0,-0.1484 c 0,0.044 -0.002,0.058 -0.002,-0.025 10e-4,-0.065 0.002,-0.084 0.002,-0.022 l 0,-2.8047 c -0.0852,-0.6083 -0.278,-1.0902 -0.55664,-1.3984 -0.24226,-0.2681 -0.44558,-0.4532 -0.9043,-0.4922 z"/><path fill="#fff" fill-rule="evenodd" d="m -127.97019,1404.8601 c -0.12606,0.2022 -0.33553,0.5405 -0.51953,0.664 -0.35055,0.2355 -0.75539,0.352 -1.15234,0.377 l 1.10742,0 0.0156,0 c 0.39695,-0.025 0.8018,-0.1415 1.15235,-0.377 0.0732,-0.049 0.15018,-0.1452 0.22461,-0.2402 -0.21297,-0.2247 -0.41655,-0.3889 -0.82813,-0.4238 z m -3.98242,1.041 c -1.00809,0 -1.78516,0.7604 -1.78516,1.6992 l 0,1.9531 c 0,-0.044 0.002,-0.066 0.002,0.025 0,0.066 -0.002,0.087 -0.002,0.023 l 0,0.1543 c 0.14095,-0.098 0.28741,-0.201 0.4375,-0.332 0.19696,-0.1719 0.38444,-0.3591 0.51953,-0.5156 0.11727,-0.1354 0.16191,-0.2305 0.16602,-0.2188 l 0,-1.0898 c 0,-0.9388 0.77707,-1.6993 1.78516,-1.6993 l -1.12305,0 z m 0.96484,2.3847 a 0.50005006,0.50005006 0 0 0 -0.47851,0.3711 c 0.007,-0.024 -0.0499,0.063 -0.0625,0.082 0.25569,0.3357 0.54811,0.5061 0.91601,0.6055 0.4399,0.119 0.98815,0.1177 1.56641,0.094 0.0595,0 0.12165,0 0.18164,-0.01 -0.22176,-0.014 -0.43678,-0.035 -0.625,-0.086 -0.43989,-0.1188 -0.7756,-0.3233 -1.06445,-0.8125 a 0.50005006,0.50005006 0 0 0 -0.41211,-0.2461 0.50005006,0.50005006 0 0 0 -0.0215,0 z m 3.94727,1.1231 c -0.25271,9e-4 -0.50279,0.016 -0.75,0.027 0.17353,0.01 0.34699,0.01 0.51953,0.039 0.25961,0.047 0.51839,0.142 0.76172,0.2754 l 0,-0.1485 c 0,0.044 -0.002,0.058 -0.002,-0.025 0.001,-0.065 0.002,-0.083 0.002,-0.022 l 0,-0.1054 c -0.17737,-0.016 -0.35421,-0.042 -0.53125,-0.041 z"/><path fill="#00a5ff" fill-rule="evenodd" d="m -127.97019,1404.8601 c -0.0744,0.1193 -0.17891,0.2739 -0.28906,0.416 0.028,0.029 0.0593,0.046 0.0879,0.078 0.27864,0.3082 0.47144,0.7901 0.55664,1.3984 l 0,2.6973 c 0.11472,0.01 0.2296,0 0.34375,0.025 0.25961,0.047 0.51839,0.1419 0.76172,0.2754 l 0,-0.1485 c 0,0.044 -0.002,0.058 -0.002,-0.025 0.001,-0.065 0.002,-0.083 0.002,-0.022 l 0,-2.8047 c -0.0852,-0.6083 -0.278,-1.0902 -0.55664,-1.3984 -0.24226,-0.2681 -0.44558,-0.4532 -0.9043,-0.4922 z m -1.29883,4.5488 c -0.23297,9e-4 -0.46292,0.015 -0.6914,0.025 0.28835,0.017 0.59405,0.017 0.91406,0 0.0358,-10e-4 0.0734,0 0.10937,0 -0.11091,0 -0.22138,-0.026 -0.33203,-0.025 z"/><path fill="none" stroke="#000" d="m -131.95309,1405.4021 c -1.26621,0 -2.28556,0.9805 -2.28556,2.1983 l 0,1.9541 c 0,0.012 0.002,0.017 0.002,0.025 -4e-5,0.012 -0.002,0.016 -0.002,0.025 l 0,2.6372 c 0,2.1923 1.83563,3.958 4.11479,3.958 2.27915,0 4.11478,-1.7657 4.11478,-3.958 l 0,-2.6372 c 0,-0.012 -0.002,-0.016 -0.002,-0.025 9e-5,-0.012 0.002,-0.016 0.002,-0.025 l 0,-2.8626 c -0.18658,-1.3613 -0.87649,-2.3324 -2.29012,-2.3258 -0.0437,0.6365 -0.7475,0.9964 -1.37477,1.036 z"/><path fill="none" stroke="#000" stroke-linecap="round" stroke-linejoin="round" d="m -134.11798,1410.4896 c 0.49667,0 1.89242,-1.2705 2.0107,-1.7022 1.40838,2.3853 4.81636,0.025 5.96984,1.9777"/></g></svg>